{"accessors" : [{"bufferView" : 0, "byteOffset" : 0, "componentType" : 5126, "count" : 50000, "type" : "VEC3", "max" : [288.8330078125, 313.2330017089844, 225.4040069580078], "min" : [-58.488800048828125, -81.83899688720703, -15.739500045776367], "name" : "POSITION"}, {"bufferView" : 0, "byteOffset" : 12, "componentType" : 5121, "normalized" : true, "count" : 50000, "type" : "VEC4", "name" : "COLOR_0"}], "asset" : {"generator" : "Aspose.3D 21.10", "version" : "2.0"}, "buffers" : [{"uri" : "data:application/octet-stream;base64,", "byteLength" : 800004}], "bufferViews" : [{"buffer" : 0, "byteOffset" : 0, "byteLength" : 800000, "byteStride" : 16, "target" : 34962}], "meshes" : [{"primitives" : [{"attributes" : {"POSITION" : 0, "COLOR_0" : 1}, "mode" : 0}], "name" : ""}], "nodes" : [{"mesh" : 0, "name" : "model"}], "scene" : 0, "scenes" : [{"nodes" : [0]}]}